@ File generated by m4a2s Song-Module
	.include "MPlayDef.s"

	.equ	seq_219_grp, bank_002
	.equ	seq_219_pri, 4
	.equ	seq_219_rev, 178
	.equ	seq_219_mvl, 127
	.equ	seq_219_key, 0

	.section .rodata
	.global	seq_219
	.align	2

@*********************** Track 01 ***********************@

seq_219_0:
	.byte	KEYSH , seq_219_key+0
	.byte	TEMPO , 210/2
	.byte		VOICE , 46
	.byte		VOL   , 95*seq_219_mvl/mxv
	.byte		BENDR , 2
	.byte		PAN   , c_v+0
	.byte		BEND  , c_v+15
	.byte	W03
	.byte		N06   , Cn6 , v116
	.byte	W03
	.byte	W03
	.byte		        En6 , v108
	.byte	W03
	.byte	W03
	.byte		        Cs5 , v100
	.byte	W03
	.byte	W03
	.byte		        Gs5 , v088
	.byte	W03
	.byte	W03
	.byte		PAN   , c_v-4
	.byte		N06   , Cs6 , v080
	.byte	W03
	.byte	W03
	.byte		PAN   , c_v+0
	.byte		N06   , Dn6 , v072
	.byte	W03
	.byte	W03
	.byte		PAN   , c_v+4
	.byte		N06   , Fs6 , v060
	.byte	W03
	.byte	W03
	.byte		PAN   , c_v+0
	.byte		N06   , Ds5 , v052
	.byte	W03
	.byte	W03
	.byte		PAN   , c_v-4
	.byte		N06   , As5 , v040
	.byte	W03
	.byte	W03
	.byte		PAN   , c_v+0
	.byte	W03
	.byte	W03
	.byte		        c_v+4
	.byte	W03
	.byte	W03
	.byte		        c_v+0
	.byte	FINE

@*********************** Track 02 ***********************@

seq_219_1:
	.byte	KEYSH , seq_219_key+0
	.byte		VOICE , 53
	.byte		BENDR , 2
	.byte		VOL   , 43*seq_219_mvl/mxv
	.byte		PAN   , c_v+0
	.byte		BEND  , c_v+15
	.byte		N06   , Cn5 , v120
	.byte	W03
	.byte	W03
	.byte		        Gn5 , v112
	.byte	W03
	.byte	W03
	.byte		        Cn6 , v104
	.byte	W03
	.byte	W03
	.byte		        Cs6 , v092
	.byte	W03
	.byte	W03
	.byte		        Fn6 , v084
	.byte	W03
	.byte	W03
	.byte		        Dn5 , v076
	.byte	W03
	.byte	W03
	.byte		        An5 , v064
	.byte	W03
	.byte	W03
	.byte		        Dn6 , v056
	.byte	W03
	.byte	W03
	.byte		        Ds6 , v048
	.byte	W03
	.byte	W03
	.byte		        Gn6 , v036
	.byte	W03
	.byte	W03
	.byte	W03
	.byte	W03
	.byte	W03
	.byte	FINE

@******************************************************@

	.align	2

seq_219:
	.byte	2	@ NumTrks
	.byte	0	@ NumBlks
	.byte	seq_219_pri	@ Priority
	.byte	seq_219_rev	@ Reverb

	.word	seq_219_grp

	.word	seq_219_0
	.word	seq_219_1

	.end
