@ File generated by m4a2s Song-Module
	.include "MPlayDef.s"

	.equ	seq_104_grp, bank_000
	.equ	seq_104_pri, 5
	.equ	seq_104_rev, 178
	.equ	seq_104_mvl, 127
	.equ	seq_104_key, 0

	.section .rodata
	.global	seq_104
	.align	2

@*********************** Track 01 ***********************@

seq_104_0:
	.byte	KEYSH , seq_104_key+0
	.byte	TEMPO , 144/2
	.byte		VOICE , 4
	.byte		XCMD  , xIECV , 10
	.byte		        xIECL , 8
	.byte		VOL   , 100*seq_104_mvl/mxv
	.byte		BEND  , c_v-6
	.byte		N02   , Gn4 , v060
	.byte	W02
	.byte		N01   , Gn4 , v032
	.byte	W01
	.byte		N02   , Dn4 , v060
	.byte	W03
	.byte		N01   , Dn4 , v032
	.byte	W01
	.byte		N02   , Gn4 , v060
	.byte	W02
	.byte		        Gn4 , v032
	.byte	W03
	.byte		        Gn3 , v060
	.byte	W02
	.byte		        Gn3 , v032
	.byte	W04
	.byte	FINE

@*********************** Track 02 ***********************@

seq_104_1:
	.byte	KEYSH , seq_104_key+0
	.byte		VOICE , 14
	.byte		VOL   , 50*seq_104_mvl/mxv
	.byte		BEND  , c_v-2
	.byte	W01
	.byte		N02   , Gn4 , v060
	.byte	W02
	.byte		N01   , Gn4 , v032
	.byte	W01
	.byte		N02   , Dn4 , v060
	.byte	W02
	.byte	W01
	.byte		N01   , Dn4 , v032
	.byte	W01
	.byte		N02   , Gn4 , v060
	.byte	W02
	.byte		        Gn4 , v032
	.byte	W02
	.byte	W01
	.byte		        Gn3 , v060
	.byte	W02
	.byte		        Gn3 , v032
	.byte	W03
	.byte	FINE

@******************************************************@

	.align	2

seq_104:
	.byte	2	@ NumTrks
	.byte	0	@ NumBlks
	.byte	seq_104_pri	@ Priority
	.byte	seq_104_rev	@ Reverb

	.word	seq_104_grp

	.word	seq_104_0
	.word	seq_104_1

	.end
