@ File generated by m4a2s Song-Module
	.include "MPlayDef.s"

	.equ	seq_257_grp, bank_005
	.equ	seq_257_pri, 5
	.equ	seq_257_rev, 178
	.equ	seq_257_mvl, 127
	.equ	seq_257_key, 0

	.section .rodata
	.global	seq_257
	.align	2

@*********************** Track 01 ***********************@

seq_257_0:
	.byte	KEYSH , seq_257_key+0
	.byte	TEMPO , 174/2
	.byte		VOICE , 46
	.byte		XCMD  , xIECV , 8
	.byte		        xIECL , 8
	.byte		VOL   , 90*seq_257_mvl/mxv
	.byte		PAN   , c_v+48
	.byte	W08
	.byte		N04   , Bn3 , v100
	.byte	W08
	.byte		N04
	.byte	W08
	.byte		N04
	.byte	W08
	.byte		N24   , Gs4 
	.byte	W10
	.byte		MOD   , 5
	.byte	W06
	.byte	W24
	.byte	FINE

@*********************** Track 02 ***********************@

seq_257_1:
	.byte	KEYSH , seq_257_key+0
	.byte		VOICE , 46
	.byte		XCMD  , xIECV , 8
	.byte		        xIECL , 8
	.byte		VOL   , 90*seq_257_mvl/mxv
	.byte	W08
	.byte		PAN   , c_v-16
	.byte		N04   , En4 , v100
	.byte	W08
	.byte		PAN   , c_v+16
	.byte		N04
	.byte	W08
	.byte		PAN   , c_v-16
	.byte		N04
	.byte	W08
	.byte		PAN   , c_v+0
	.byte		N24   , Bn4 
	.byte	W10
	.byte		MOD   , 5
	.byte	W06
	.byte	W24
	.byte	FINE

@*********************** Track 03 ***********************@

seq_257_2:
	.byte	KEYSH , seq_257_key+0
	.byte		VOICE , 46
	.byte		XCMD  , xIECV , 8
	.byte		        xIECL , 8
	.byte		VOL   , 90*seq_257_mvl/mxv
	.byte		PAN   , c_v-48
	.byte	W08
	.byte		N04   , Gs3 , v068
	.byte	W08
	.byte		N04
	.byte	W08
	.byte		N04
	.byte	W08
	.byte		N24   , En4 
	.byte	W10
	.byte		MOD   , 5
	.byte	W06
	.byte	W24
	.byte	FINE

@*********************** Track 04 ***********************@

seq_257_3:
	.byte	KEYSH , seq_257_key+0
	.byte		VOICE , 84
	.byte		XCMD  , xIECV , 8
	.byte		        xIECL , 8
	.byte		VOL   , 90*seq_257_mvl/mxv
	.byte	W08
	.byte		N04   , Bn3 , v048
	.byte	W04
	.byte		        Bn3 , v020
	.byte	W04
	.byte		        Bn3 , v048
	.byte	W04
	.byte		        Bn3 , v020
	.byte	W04
	.byte		        Bn3 , v048
	.byte	W04
	.byte		        Bn3 , v020
	.byte	W04
	.byte		N24   , Gs4 , v048
	.byte	W10
	.byte		MOD   , 5
	.byte	W03
	.byte		VOL   , 71*seq_257_mvl/mxv
	.byte	W03
	.byte		        48*seq_257_mvl/mxv
	.byte	W03
	.byte		        25*seq_257_mvl/mxv
	.byte	W03
	.byte		        10*seq_257_mvl/mxv
	.byte	W03
	.byte		        0*seq_257_mvl/mxv
	.byte	W15
	.byte	FINE

@*********************** Track 05 ***********************@

seq_257_4:
	.byte	KEYSH , seq_257_key+0
	.byte		VOICE , 85
	.byte		XCMD  , xIECV , 8
	.byte		        xIECL , 8
	.byte		VOL   , 90*seq_257_mvl/mxv
	.byte	W08
	.byte		N04   , En4 , v048
	.byte	W04
	.byte		        En4 , v020
	.byte	W04
	.byte		        En4 , v048
	.byte	W04
	.byte		        En4 , v020
	.byte	W04
	.byte		        En4 , v048
	.byte	W04
	.byte		        En4 , v020
	.byte	W04
	.byte		N24   , Bn4 , v048
	.byte	W10
	.byte		MOD   , 5
	.byte	W03
	.byte		VOL   , 71*seq_257_mvl/mxv
	.byte	W03
	.byte		        48*seq_257_mvl/mxv
	.byte	W03
	.byte		        25*seq_257_mvl/mxv
	.byte	W03
	.byte		        10*seq_257_mvl/mxv
	.byte	W03
	.byte		        0*seq_257_mvl/mxv
	.byte	W15
	.byte	FINE

@******************************************************@

	.align	2

seq_257:
	.byte	5	@ NumTrks
	.byte	0	@ NumBlks
	.byte	seq_257_pri	@ Priority
	.byte	seq_257_rev	@ Reverb

	.word	seq_257_grp

	.word	seq_257_0
	.word	seq_257_1
	.word	seq_257_2
	.word	seq_257_3
	.word	seq_257_4

	.end
